<?xml version="1.0" encoding="utf-8"?>
<!-- Generator: Adobe Illustrator 23.0.3, SVG Export Plug-In . SVG Version: 6.00 Build 0)  -->
<svg version="1.1" id="Calque_1" xmlns="http://www.w3.org/2000/svg" xmlns:xlink="http://www.w3.org/1999/xlink" x="0px" y="0px"
	 viewBox="0 0 780.3 286.9" style="enable-background:new 0 0 780.3 286.9;" xml:space="preserve">
<style type="text/css">
	.st0{fill:#319CB3;}
	.st1{fill:#FFFFFF;}
</style>
<g>
	<path class="st0" d="M713.5,119.5c-0.8,0-1.5,0-2.3,0c-12.4,0-22,3.7-29,6.4c-2.1,0.8-4.6,1.8-5.7,2c-1.9,0.4-3.7,0.9-5.5,1.5
		c-0.2,0-0.3,0-0.5-0.1c0.4-10.2-3.1-19.8-9.9-27.3c-5.1-5.6-14.1-12.3-28.8-12.7c-1.4-0.1-2.9-0.1-4.4-0.1l0,0
		c-8.9,0-16.8,1.3-23.5,2.6c-5.2,1-10.1,2.2-14.8,3.8c-5.6-3-11.9-4.7-18.3-4.7c-1.5,0-2.9,0.1-4.4,0.2c-0.8-4.9-2.6-10.3-6.1-15.9
		c-7.1-11.5-17.4-16-21.2-17.7l-0.4-0.2c-18.2-8.6-38.4-12.7-63.3-12.7l0,0c-1.6,0-3.3,0-4.9,0c-36.9,0.7-69.9,10.6-98.2,29.4
		c-9.7,6.4-18.6,13.5-27,20.8c-14.2-7.7-29.7-11.7-46-11.7c-4.2,0-8.5,0.3-12.7,0.8c-8.8,1.1-16.8,3.1-24.3,5.6
		c-1.2-7-4.4-14.8-11.3-22.7l-0.2-0.3c-7.7-9.5-19-15-31.1-15c-7.4,0-14.7,2.1-21.1,6l-0.6,0.4c-1.4,0.8-3.5,2-5.9,3.7
		c-7.8,5.5-13.2,13.9-15.8,23.6c-3.1,1-6.1,2.1-9,3.1l-2.8,1c-19.5,6.8-35.4,11.6-50,15c-9.8,2.3-21.3,4.7-32.2,5.2
		c-23,1.1-40.2,18-40.9,40.3c-0.7,22.4,16.8,41.1,39.7,42.7c2.7,0.2,5.2,0.3,7.5,0.3c4.6,0,8.9-0.3,13.2-1.1
		c16.1-2.7,31.6-6.8,46-11.2c9.2,12.5,24.2,19.9,40.6,19.9c1.3,0,2.6,0,3.9-0.1c16-1.1,29.9-6,40-9.6c3.4-1.2,6-2.5,8.1-3.6
		c4.6-2,8.9-4.1,13-6.1c0.3-0.1,0.5-0.3,0.8-0.4c1.9,1.6,4,3.3,6.4,4.7c-1.6,1.8-3.2,3.6-4.8,5.5c-11.9,13.5-12.5,26.9-11,35.9
		c2.9,17.4,17.9,30.2,35.5,30.4c0.2,0,0.4,0,0.5,0c6.6,0,19-1.8,29.2-13.3l6.4-6.6c5-5.2,10-10.3,15-15.4c3.5-3.6,7-7.1,10.5-10.7
		l3.7-3.8c1-0.9,2.1-1.8,3.1-2.7l5.7-5.4c7.4-7,14.8-14,22.2-21c10.5-0.5,20.9-1.1,31.4-1.6c13.3-0.7,26.6-1.4,39.8-2l6.4-0.3
		c2.5-0.1,4.9-0.2,7.3-0.4c5,7.7,12.2,14.2,21.4,18.8c7.5,3.7,15.5,5.7,24.6,6.3c1.9,0.1,3.8,0.2,5.8,0.2c5.5,0,10.9-0.5,16-1.2
		c6.8,4.8,14.6,7,21.4,7.3c0.5,0,1.1,0,1.5,0c4.3,0,12.3-0.8,20.3-5.6c11.8,5.2,23.5,6.6,33.5,7.2c3.1,0.2,6.4,0.3,9.8,0.3
		c8.8,0,17-0.6,25-1.2c5-0.4,9.7-0.7,14.3-0.9l0.3,0c5.2-0.2,13.7-0.6,23.7-4.1c4.3,1,8.6,1.6,12.9,1.6c8.3,0,16.6-2,24.7-5.8
		c1.9-0.9,4.2-1.9,6.5-2.9c1.3-0.5,2.5-1.1,3.8-1.7c13.2-5.8,21.8-18.9,21.8-33.4v-2.4C748.6,136.3,733.1,120.2,713.5,119.5z"/>
	<g>
		<path class="st1" d="M683.4,163.6c6.7,2.9,12,2.3,17.3-0.2c3.8-1.8,7.6-3.4,11.5-5.1c0-0.8,0-1.6,0-2.4
			C702,155.6,693.8,161.7,683.4,163.6z"/>
		<path class="st1" d="M568.7,128.2c-1.2,0.8-2.3,1.8-3.3,2.8c-4,3.8-5.3,4-9.7,0.4c-3.1-2.5-6.5-4.3-10.4-5.3
			c-9.3-2.5-18.4-1.6-27.5,1c-1.3,0.4-2.7,1.5-4,0.2c-1.8-1.8-3.9-1.4-5.9-0.8c-3.3,0.9-6.7,1-10.1,1.1c-33.1,0.3-66.3,0.4-99.4,1.7
			c-7.6,0.3-15.2,1.4-23,0.9c0.3-0.5,0.3-0.8,0.5-0.9c21.5-17.8,46.2-29,73.6-34.3c19.7-3.9,39.4-2.3,59,0.9c6,1,11.7,2.6,17.6,4.1
			c1.5,0.4,3.3,0.6,4.3-1c1-1.6,0-3.1-0.8-4.4c-1.4-2.3-3.9-3-6.1-4.1c-16.5-7.8-34-9.5-52.1-9.2c-28.4,0.5-54.9,7.5-78.7,23.3
			c-29.3,19.5-52.3,45.8-75.3,71.9c-3.5,3.9-6.9,7.8-10.4,11.7c-7.9,8.9-15.9,17.8-23.7,26.7c-1.4,1.6-2.9,3.3-2.5,5.7
			c1.3,0,1.8-0.9,2.4-1.5c7.4-7.6,14.7-15.3,22.1-22.8c5.1-5.2,10.3-10.4,15.4-15.6l0,0v0v0c1-0.9,2-1.7,2.9-2.6
			c11.9-11.3,23.8-22.5,35.6-33.8c1.5-1.5,3.1-2,5.2-2.1c27.2-1.3,54.4-2.8,81.6-4.1c14.4-0.7,28.8-1.6,43.2-1.5
			c2.2,0,3.4,0.3,2.3,2.8c-0.4,0.8-0.4,1.8-0.6,2.7c-2,8.2,0.7,14,8.3,17.8c3.3,1.6,6.9,2.4,10.6,2.6c12.3,0.7,23.9-2.4,35.3-6.3
			c1.1-0.4,2.3-1.5,3.3-0.7c1.1,0.9,0.5,2.5,0.2,3.7c-0.4,1.8-0.8,3.6-0.2,5.4c0.6,1.9,1.5,3.9,3.8,4c2.1,0.1,3-1.8,3.8-3.5
			c0.3-0.6,0.5-1.2,0.7-1.8c1.8-5.5,3.9-10.8,6.5-16c2.7-5.4,5.5-10.7,8.8-15.7c0.7-1,1.8-2.4,0.5-3.5
			C571.2,126.9,569.8,127.4,568.7,128.2z M538.9,148c-6.5,1.8-13.2,1.8-19.8,2.4c-3.2,0.2-6.3-0.3-9.3-1.3c-2.2-0.8-4.1-2.1-4.1-4.7
			c-0.1-2.5,1.6-3.9,3.8-4.9c3.5-1.6,7.2-1.6,10.8-1.2c6.7,0.7,12.9,3.1,18.9,6.3c0.8,0.5,2.2,0.8,2.2,2
			C541.3,147.9,539.8,147.7,538.9,148z"/>
		<path class="st1" d="M330.4,146.8c10.1-5,10.2-11.7,0.8-18.1c-0.4-0.3-0.9-0.6-1.3-0.8c-12.1-7.1-25-9.5-38.9-7.8
			c-12.5,1.5-24,6.2-35.5,10.9c-4.4,2-8.7,4.1-13.2,6c-4.5,2-8.8,4.6-13.7,5.6c-1.9,0.5-3,0.8-4.5,1.4c-9.5,3.5-19,6.5-29.3,6.2
			c-1.7-0.1-3.6,0.1-4.6-1.7c-1.1-1.9,0-3.5,1-5.1c2.7-4.4,6.3-8,9.9-11.6c3.6-3.6,7.5-6.9,10.5-11.1c2.6-3.5,1.7-5.4-2.7-5.8
			c-3.9-0.4-7.6,0.5-11.2,1.6c-7.1,2.2-14.2,4.7-21.2,7.2c-17.7,6.2-35.5,11.9-53.8,16.1c-12.8,3-25.6,5.5-38.7,6.1
			c-4,0.2-6,1.7-6.1,4.9c-0.1,2.8,2.1,5,5.7,5.3c4,0.3,8.1,0.3,12.1-0.4c25-4.2,49-12.2,72.8-20.9c7.2-2.6,14.6-4.9,22.4-6.7
			c-4.1,4-8.3,7.2-11.4,11.5c-1.2,1.7-2.4,3.5-3.2,5.4c-4.6,10.5,2,19.6,13.4,18.8c10.6-0.7,20.5-4.1,30.4-7.6
			c1.7-0.6,2.6-1.1,4.2-2c8.9-3.9,17.4-8.5,26.3-12.4c16.2-7.8,32.9-13.6,51.4-11.5c7.9,0.9,15.6,2.5,21.5,8.4c2.8,2.8,2.5,4-1.3,5
			c-6.5,1.7-13,1.6-19.4-0.5c-3-1-5.5-2.6-5.6-6.2c-0.1-2.3-1.5-3-3.3-2.8c-6.9,0.5-13,2.9-17.6,8.3c-2.4,2.7-2.4,5.6,0,8.5
			c3.8,4.6,9,6,14.7,6.1C305.1,157.4,318.1,152.9,330.4,146.8z"/>
		<path class="st1" d="M617.3,163.7c-6.4-0.4-12.8-1-18.7-3.8c-4.7-2.2-9.4-4.8-10-10.6c-0.6-5.7,3.7-8.9,7.8-11.8
			c10.1-7.2,21.8-8.3,33.7-8c1.6,0,3.9,0.8,4.1-1.6c0.2-2.4-2.3-2.1-3.9-2.2c-6.6-0.4-13,0.7-19.5,1.9c-10.8,2-21,5.7-29.3,13.2
			c-9.1,8.3-7.7,17.8,3.1,23.7c7.3,4,15.4,4.9,23.5,5.4c15.2,0.9,30.3-1.3,45.5-1.9c4.4-0.2,9-0.3,14.3-2.4
			c-1.6-0.2-2.2-0.4-2.8-0.3C649.2,165.8,633.2,164.8,617.3,163.7z"/>
		<path class="st1" d="M215.6,105.9c2.9,0,9.9-5.2,10.7-8.4c0.8-3.5-1.9-5.7-3.8-8.1c-1.3-1.6-3-1.9-4.9-0.8c-1.4,0.9-3,1.6-4.4,2.6
			c-2.9,2.1-3,11.7-0.2,13.9C213.8,105.7,214.7,105.9,215.6,105.9z"/>
	</g>
</g>
</svg>
